# xmcd CD database file
#
# Track frame offsets:
#	150
#	21178
#	60952
#	87795
#	122794
#	154708
#	179497
#	204307
#	232760
#
# Disc length: 3433 seconds
#
# Revision: 0
# Processed by: cddbd v1.5.2PL0 Copyright (c) Steve Scherf et al.
# Submitted via: CDex 1.70beta2
#
DISCID=640d6709
DTITLE=Marc Miralta Flamenco Reunion - Marc Miralta Flamenco Reunion
DYEAR=2013
DGENRE=Jazz
TTITLE0=Chi chi
TTITLE1=Entre dos
TTITLE2=25 Jaleos
TTITLE3=Infant Eyes
TTITLE4=Moose the Mooche
TTITLE5=Retrato em Branco e Preto
TTITLE6=Junto a las estrellas
TTITLE7=Pannonica
TTITLE8=Hornin' in
EXTD=YEAR: 2013
EXTT0=
EXTT1=
EXTT2=
EXTT3=
EXTT4=
EXTT5=
EXTT6=
EXTT7=
EXTT8=
PLAYORDER=
